<svg xmlns="http://www.w3.org/2000/svg" fill="none" viewBox="0 0 32 32" height="1024" width="1024">
<path fill="url(#paint0_radial_23_362)" d="M15.9989 29.9978C25.3333 29.9978 29.9978 23.7303 29.9978 15.9989C29.9978 8.26751 25.3333 2 15.9989 2C6.66443 2 2 8.26751 2 15.9989C2 23.7303 6.66443 29.9978 15.9989 29.9978Z"></path>
<path fill="url(#paint1_radial_23_362)" d="M15.9989 29.9978C25.3333 29.9978 29.9978 23.7303 29.9978 15.9989C29.9978 8.26751 25.3333 2 15.9989 2C6.66443 2 2 8.26751 2 15.9989C2 23.7303 6.66443 29.9978 15.9989 29.9978Z"></path>
<path fill="url(#paint2_radial_23_362)" d="M15.9989 29.9978C25.3333 29.9978 29.9978 23.7303 29.9978 15.9989C29.9978 8.26751 25.3333 2 15.9989 2C6.66443 2 2 8.26751 2 15.9989C2 23.7303 6.66443 29.9978 15.9989 29.9978Z"></path>
<path fill-opacity="0.6" fill="url(#paint3_radial_23_362)" d="M15.9989 29.9978C25.3333 29.9978 29.9978 23.7303 29.9978 15.9989C29.9978 8.26751 25.3333 2 15.9989 2C6.66443 2 2 8.26751 2 15.9989C2 23.7303 6.66443 29.9978 15.9989 29.9978Z"></path>
<path fill="url(#paint4_radial_23_362)" d="M15.9989 29.9978C25.3333 29.9978 29.9978 23.7303 29.9978 15.9989C29.9978 8.26751 25.3333 2 15.9989 2C6.66443 2 2 8.26751 2 15.9989C2 23.7303 6.66443 29.9978 15.9989 29.9978Z"></path>
<path fill="url(#paint5_radial_23_362)" d="M15.9989 29.9978C25.3333 29.9978 29.9978 23.7303 29.9978 15.9989C29.9978 8.26751 25.3333 2 15.9989 2C6.66443 2 2 8.26751 2 15.9989C2 23.7303 6.66443 29.9978 15.9989 29.9978Z"></path>
<path fill="url(#paint6_radial_23_362)" d="M15.9989 29.9978C25.3333 29.9978 29.9978 23.7303 29.9978 15.9989C29.9978 8.26751 25.3333 2 15.9989 2C6.66443 2 2 8.26751 2 15.9989C2 23.7303 6.66443 29.9978 15.9989 29.9978Z"></path>
<path fill="url(#paint7_radial_23_362)" d="M15.9989 29.9978C25.3333 29.9978 29.9978 23.7303 29.9978 15.9989C29.9978 8.26751 25.3333 2 15.9989 2C6.66443 2 2 8.26751 2 15.9989C2 23.7303 6.66443 29.9978 15.9989 29.9978Z"></path>
<path fill="url(#paint8_radial_23_362)" d="M16 26C6 26 6 16 6 16H26C26 16 26 26 16 26Z"></path>
<path fill="url(#paint9_linear_23_362)" d="M23.5 17.5H8.5C7.67157 17.5 7 16.8284 7 16H25C25 16.8284 24.3284 17.5 23.5 17.5Z"></path>
<g filter="url(#filter0_f_23_362)">
<path style="mix-blend-mode:multiply" fill-opacity="0.6" fill="url(#paint10_radial_23_362)" d="M9.44746 14.3275C8.95348 14.5745 8.35281 14.3743 8.10582 13.8803C7.85883 13.3863 8.05906 12.7856 8.55303 12.5387L10.7595 11.4354H14.0002C13.9994 11.8133 13.7856 12.1585 13.4475 12.3275L9.44746 14.3275Z"></path>
<path style="mix-blend-mode:multiply" fill-opacity="0.6" fill="url(#paint11_radial_23_362)" d="M9.44746 8.54329C8.95348 8.2963 8.35281 8.49653 8.10582 8.99051C7.85883 9.48448 8.05906 10.0852 8.55303 10.3321L10.7595 11.4354H14.0002C13.9994 11.0575 13.7856 10.7123 13.4475 10.5433L9.44746 8.54329Z"></path>
</g>
<path fill="url(#paint12_linear_23_362)" d="M9.44746 13.8899C8.95348 14.1369 8.35281 13.9367 8.10582 13.4427C7.85883 12.9487 8.05906 12.3481 8.55303 12.1011L10.7595 10.9978H14.0002C13.9994 11.3757 13.7856 11.7209 13.4475 11.8899L9.44746 13.8899Z"></path>
<path fill="url(#paint13_linear_23_362)" d="M9.44746 8.10579C8.95348 7.8588 8.35281 8.05903 8.10582 8.55301C7.85883 9.04698 8.05906 9.64766 8.55303 9.89465L10.7595 10.9979H14.0002C13.9994 10.62 13.7856 10.2748 13.4475 10.1058L9.44746 8.10579Z"></path>
<g filter="url(#filter1_f_23_362)">
<path fill="url(#paint14_radial_23_362)" d="M21.959 14.3275C22.453 14.5745 23.0537 14.3743 23.3007 13.8803C23.5477 13.3863 23.3474 12.7856 22.8535 12.5387L20.647 11.4354H17.4062C17.4071 11.8133 17.6209 12.1585 17.959 12.3275L21.959 14.3275Z"></path>
<path fill="url(#paint15_radial_23_362)" d="M21.959 8.54329C22.453 8.2963 23.0537 8.49653 23.3007 8.99051C23.5477 9.48448 23.3474 10.0852 22.8535 10.3321L20.647 11.4354H17.4062C17.4071 11.0575 17.6209 10.7123 17.959 10.5433L21.959 8.54329Z"></path>
</g>
<path fill="url(#paint16_linear_23_362)" d="M22.5372 13.8899C23.0311 14.1369 23.6318 13.9367 23.8788 13.4427C24.1258 12.9487 23.9256 12.3481 23.4316 12.1011L21.2251 10.9978H17.9844C17.9852 11.3757 18.1991 11.7209 18.5372 11.8899L22.5372 13.8899Z"></path>
<path fill="url(#paint17_linear_23_362)" d="M22.5372 8.10579C23.0311 7.8588 23.6318 8.05903 23.8788 8.55301C24.1258 9.04698 23.9256 9.64766 23.4316 9.89465L21.2251 10.9979H17.9844C17.9852 10.62 18.1991 10.2748 18.5372 10.1058L22.5372 8.10579Z"></path>
<defs>
<filter color-interpolation-filters="sRGB" filterUnits="userSpaceOnUse" height="6.99579" width="7.00024" y="7.9375" x="7.5" id="filter0_f_23_362">
<feFlood result="BackgroundImageFix" flood-opacity="0"></feFlood>
<feBlend result="shape" in2="BackgroundImageFix" in="SourceGraphic" mode="normal"></feBlend>
<feGaussianBlur result="effect1_foregroundBlur_23_362" stdDeviation="0.25"></feGaussianBlur>
</filter>
<filter color-interpolation-filters="sRGB" filterUnits="userSpaceOnUse" height="6.99579" width="7.00024" y="7.9375" x="16.9062" id="filter1_f_23_362">
<feFlood result="BackgroundImageFix" flood-opacity="0"></feFlood>
<feBlend result="shape" in2="BackgroundImageFix" in="SourceGraphic" mode="normal"></feBlend>
<feGaussianBlur result="effect1_foregroundBlur_23_362" stdDeviation="0.25"></feGaussianBlur>
</filter>
<radialGradient gradientTransform="translate(25.5 9) rotate(132.839) scale(37.5033)" gradientUnits="userSpaceOnUse" r="1" cy="0" cx="0" id="paint0_radial_23_362">
<stop stop-color="#FFF478"></stop>
<stop stop-color="#FFB02E" offset="0.474827"></stop>
<stop stop-color="#F70A8D" offset="1"></stop>
</radialGradient>
<radialGradient gradientTransform="translate(25.5 9) rotate(131.878) scale(38.9487)" gradientUnits="userSpaceOnUse" r="1" cy="0" cx="0" id="paint1_radial_23_362">
<stop stop-color="#FFF478"></stop>
<stop stop-color="#FFB02E" offset="0.474827"></stop>
<stop stop-color="#F70A8D" offset="1"></stop>
</radialGradient>
<radialGradient gradientTransform="translate(16 12.5) rotate(101.31) scale(17.8466 22.8581)" gradientUnits="userSpaceOnUse" r="1" cy="0" cx="0" id="paint2_radial_23_362">
<stop stop-opacity="0" stop-color="#F59639" offset="0.787821"></stop>
<stop stop-color="#FF7DCE" offset="0.972509"></stop>
</radialGradient>
<radialGradient gradientTransform="translate(18 14) rotate(135) scale(41.0122)" gradientUnits="userSpaceOnUse" r="1" cy="0" cx="0" id="paint3_radial_23_362">
<stop stop-opacity="0" offset="0.314853"></stop>
<stop offset="1"></stop>
</radialGradient>
<radialGradient gradientTransform="translate(16 17) rotate(77.692) scale(28.1469)" gradientUnits="userSpaceOnUse" r="1" cy="0" cx="0" id="paint4_radial_23_362">
<stop stop-opacity="0" stop-color="#7D6133" offset="0.507903"></stop>
<stop stop-color="#715B32" offset="1"></stop>
</radialGradient>
<radialGradient gradientTransform="translate(16.5 16.5) rotate(55.7131) scale(13.3135 9.65032)" gradientUnits="userSpaceOnUse" r="1" cy="0" cx="0" id="paint5_radial_23_362">
<stop stop-color="#FFB849"></stop>
<stop stop-opacity="0" stop-color="#FFB847" offset="1"></stop>
</radialGradient>
<radialGradient gradientTransform="translate(20.5 18) rotate(9.86581) scale(11.6726)" gradientUnits="userSpaceOnUse" r="1" cy="0" cx="0" id="paint6_radial_23_362">
<stop stop-color="#FFA64B"></stop>
<stop stop-opacity="0" stop-color="#FFAE46" offset="0.900412"></stop>
</radialGradient>
<radialGradient gradientTransform="translate(17.5 15) rotate(43.9708) scale(59.0529)" gradientUnits="userSpaceOnUse" r="1" cy="0" cx="0" id="paint7_radial_23_362">
<stop stop-opacity="0" offset="0.185425"></stop>
<stop stop-opacity="0.4" offset="1"></stop>
</radialGradient>
<radialGradient gradientTransform="translate(16 28.2222) rotate(-90) scale(12.2222 24.4444)" gradientUnits="userSpaceOnUse" r="1" cy="0" cx="0" id="paint8_radial_23_362">
<stop stop-color="#F70A8D"></stop>
<stop stop-color="#89029C" offset="1"></stop>
</radialGradient>
<linearGradient gradientUnits="userSpaceOnUse" y2="17.5" x2="16" y1="16" x1="16" id="paint9_linear_23_362">
<stop stop-color="#ECCDFF"></stop>
<stop stop-color="white" offset="1"></stop>
</linearGradient>
<radialGradient gradientTransform="translate(9.78128 8.4375) rotate(110.225) scale(7.59317 9.92428)" gradientUnits="userSpaceOnUse" r="1" cy="0" cx="0" id="paint10_radial_23_362">
<stop stop-color="#9F5E0F"></stop>
<stop stop-opacity="0" stop-color="#9F5E0F" offset="0.889024"></stop>
</radialGradient>
<radialGradient gradientTransform="translate(9.78128 8.4375) rotate(110.225) scale(7.59317 9.92428)" gradientUnits="userSpaceOnUse" r="1" cy="0" cx="0" id="paint11_radial_23_362">
<stop stop-color="#9F5E0F"></stop>
<stop stop-opacity="0" stop-color="#9F5E0F" offset="0.889024"></stop>
</radialGradient>
<linearGradient gradientUnits="userSpaceOnUse" y2="9.38845" x2="8.00003" y1="14.7322" x1="10.5784" id="paint12_linear_23_362">
<stop stop-color="#482641" offset="0.24955"></stop>
<stop stop-color="#503A4A" offset="0.406361"></stop>
<stop stop-color="#482641" offset="0.511203"></stop>
</linearGradient>
<linearGradient gradientUnits="userSpaceOnUse" y2="6.45102" x2="11.2502" y1="11.1385" x1="8.85962" id="paint13_linear_23_362">
<stop stop-color="#482641" offset="0.24955"></stop>
<stop stop-color="#503A4A" offset="0.406361"></stop>
<stop stop-color="#482641" offset="0.511203"></stop>
</linearGradient>
<radialGradient gradientTransform="translate(26.8281 15.4375) rotate(-135.995) scale(13.3597 17.4611)" gradientUnits="userSpaceOnUse" r="1" cy="0" cx="0" id="paint14_radial_23_362">
<stop stop-color="#E9830A"></stop>
<stop stop-opacity="0" stop-color="#F08B13" offset="0.801655"></stop>
</radialGradient>
<radialGradient gradientTransform="translate(26.8281 15.4375) rotate(-135.995) scale(13.3597 17.4611)" gradientUnits="userSpaceOnUse" r="1" cy="0" cx="0" id="paint15_radial_23_362">
<stop stop-color="#E9830A"></stop>
<stop stop-opacity="0" stop-color="#F08B13" offset="0.801655"></stop>
</radialGradient>
<linearGradient gradientUnits="userSpaceOnUse" y2="9.38845" x2="23.9846" y1="14.7322" x1="21.4063" id="paint16_linear_23_362">
<stop stop-color="#482641" offset="0.24955"></stop>
<stop stop-color="#503A4A" offset="0.406361"></stop>
<stop stop-color="#482641" offset="0.511203"></stop>
</linearGradient>
<linearGradient gradientUnits="userSpaceOnUse" y2="6.45102" x2="20.7344" y1="11.1385" x1="23.125" id="paint17_linear_23_362">
<stop stop-color="#482641" offset="0.24955"></stop>
<stop stop-color="#503A4A" offset="0.406361"></stop>
<stop stop-color="#482641" offset="0.511203"></stop>
</linearGradient>
</defs>
</svg>
