<?xml version="1.0" standalone="no"?><!DOCTYPE svg PUBLIC "-//W3C//DTD SVG 1.1//EN" "http://www.w3.org/Graphics/SVG/1.1/DTD/svg11.dtd"><svg t="1766380129738" class="icon" viewBox="0 0 1024 1024" version="1.1" xmlns="http://www.w3.org/2000/svg" p-id="18092" xmlns:xlink="http://www.w3.org/1999/xlink" width="200" height="200"><path d="M214.401023 511.361762a297.998976 297.998976 0 0 1 15.999945-94.959673l-175.999395-131.679548a505.758261 505.758261 0 0 0 0 453.038443l175.999395-131.919547a296.398981 296.398981 0 0 1-15.999945-94.479675" fill="#FBBC05" p-id="18093"></path><path d="M523.51996 209.122801a306.638946 306.638946 0 0 1 192.559338 67.359769l151.999478-148.719489A529.038181 529.038181 0 0 0 54.081574 284.722541l175.999395 131.679548a307.678942 307.678942 0 0 1 293.438991-207.279288" fill="#EA4335" p-id="18094"></path><path d="M523.51996 813.520724a307.678942 307.678942 0 0 1-293.438991-207.279288l-175.999395 131.679547a522.638203 522.638203 0 0 0 469.438386 284.879021c127.99956 0 249.359143-44.319848 340.798829-127.519562L697.199363 768.800877c-47.119838 29.1199-106.479634 44.719846-173.679403 44.719847" fill="#34A853" p-id="18095"></path><path d="M1022.798244 511.361762a421.118552 421.118552 0 0 0-11.839959-93.03968H523.51996V616.001402h280.559036a230.239209 230.239209 0 0 1-106.799633 152.799475L863.99879 895.280442c95.99967-87.1997 158.479455-217.199253 158.479455-383.99868" fill="#4285F4" p-id="18096"></path></svg>